PathFileType	4	(X/Y/Z)	Kaydara																																																																																																																									
DataRate	CameraRate	NumFrames	NumMarkers	Units	OrigDataRate	OrigDataStartFrame	OrigNumFrames																																																																																																																					
30	30	7	41	mm	30	216	345																																																																																																																					
Frame#	Time	NABA_LFHD			NABA_RFHD			NABA_LBHD			NABA_RBHD			NABA_LFTShould			NABA_RFTShould			NABA_LRRShould			NABA_RRRShould			NABA_T10			NABA_STRN			NABA_TRUN			NABA_LSHO			NABA_LUPA			NABA_LELB			NABA_LFRM			NABA_LWRA			NABA_LWRB			NABA_LFIN			NABA_RSHO			NABA_RUPA			NABA_RELB			NABA_RFRM			NABA_RWRA			NABA_RWRB			NABA_RFIN			NABA_LFWT			NABA_RFWT			NABA_LBWT			NABA_RBWT			NABA_LTHI			NABA_LKNE			NABA_LSHN			NABA_LANK			NABA_LHEE			NABA_LTOE			NABA_RTHI			NABA_RKNE			NABA_RSHN			NABA_RANK			NABA_RHEE			NABA_RTOE		
		X1	Y1	Z1	X2	Y2	Z2	X3	Y3	Z3	X4	Y4	Z4	X5	Y5	Z5	X6	Y6	Z6	X7	Y7	Z7	X8	Y8	Z8	X9	Y9	Z9	X10	Y10	Z10	X11	Y11	Z11	X12	Y12	Z12	X13	Y13	Z13	X14	Y14	Z14	X15	Y15	Z15	X16	Y16	Z16	X17	Y17	Z17	X18	Y18	Z18	X19	Y19	Z19	X20	Y20	Z20	X21	Y21	Z21	X22	Y22	Z22	X23	Y23	Z23	X24	Y24	Z24	X25	Y25	Z25	X26	Y26	Z26	X27	Y27	Z27	X28	Y28	Z28	X29	Y29	Z29	X30	Y30	Z30	X31	Y31	Z31	X32	Y32	Z32	X33	Y33	Z33	X34	Y34	Z34	X35	Y35	Z35	X36	Y36	Z36	X37	Y37	Z37	X38	Y38	Z38	X39	Y39	Z39	X40	Y40	Z40	X41	Y41	Z41
																																																																																																																												
216	7.177	280.46312	1462.57706	433.71017	111.67504	1428.74832	441.60706	288.67014	1539.35379	333.14697	74.20568	1491.62888	370.14347	264.2243	1301.92902	261.14227	131.24265	1295.77148	275.23115	251.65049	1369.67224	152.85313	104.71792	1362.76627	176.31971	177.96755	1211.1039	74.77993	204.18385	1242.47803	309.47443	210.73103	1143.07289	351.06918	358.755	1329.53979	202.16623	407.27718	1097.91725	136.55956	422.48608	1012.07291	151.52098	409.80167	937.97813	131.14717	365.25806	794.18037	221.56956	435.29373	792.06665	206.79491	423.19889	737.29179	254.35446	33.50696	1323.85239	246.87851	-27.59927	1118.70079	183.35478	-46.58793	996.95114	230.56156	-45.18919	902.11662	244.98932	39.97298	788.43147	322.38281	-32.89797	773.60031	333.53703	-11.11888	740.72144	364.1573	324.64973	929.60526	254.75317	60.54082	926.62933	278.85626	259.32438	988.3036	89.07898	92.54786	1003.94897	102.6175	336.34277	622.8157	177.18008	344.87423	490.83321	267.38468	306.69386	302.01157	220.76576	331.07502	207.73462	81.82403	267.42626	187.39136	16.64795	333.29712	73.51426	151.18052	67.47138	638.44116	139.63265	100.35276	479.65618	253.73732	127.69506	308.13307	236.34785	131.66018	115.64075	172.22004	180.18911	70.40576	99.63883	188.64233	52.79826	304.53678
217	7.21	279.49314	1461.63162	446.16169	110.63379	1428.13843	454.0583	287.83926	1538.57971	345.77541	73.25052	1491.17996	382.73201	262.68564	1301.25885	273.59985	129.81415	1295.08087	287.40896	250.65899	1369.29138	165.49467	103.75072	1362.09106	188.48835	177.59855	1210.6041	87.12702	202.73666	1241.59485	321.73706	209.13004	1142.26097	363.37509	357.6693	1329.1391	215.23838	407.17033	1097.34535	150.65535	422.59686	1011.63223	166.01635	410.44121	937.27722	146.18825	365.92186	794.17252	237.62917	436.04778	792.1685	223.40527	423.82755	737.79594	271.30289	32.37048	1322.93594	258.90911	-28.66178	1117.3336	196.11101	-46.26171	995.45258	243.69535	-44.3775	900.72632	257.83072	41.9999	787.00363	333.84525	-30.64879	771.91452	345.8709	-8.28828	738.97652	376.08822	324.32533	929.88564	268.07932	60.27738	925.86166	290.93149	259.54708	987.89055	101.9095	92.94284	1003.3625	114.96335	337.02309	623.0603	196.08507	343.73306	492.6556	289.66099	306.69353	299.14577	258.82309	332.85088	191.12507	130.37186	270.26962	163.39098	67.36308	335.39131	67.33316	214.95663	67.99115	638.44646	149.17006	100.18424	478.2151	261.57766	128.13951	306.81072	241.69653	132.02525	115.36988	173.77409	180.21105	71.28076	100.21394	188.67342	52.54383	304.53831
218	7.243	278.55742	1460.81314	458.5289	109.71518	1427.3645	466.17702	287.02381	1537.92191	358.27755	72.44332	1490.57434	394.85104	261.845	1300.737	285.8683	128.85626	1294.3045	299.37426	250.05041	1368.79349	177.72989	103.07013	1361.38489	200.44104	177.54559	1209.99146	99.37155	201.72924	1241.03523	333.79429	208.13032	1141.80573	375.64358	356.98124	1328.96118	227.87931	406.698	1096.61217	164.7867	422.12864	1011.10817	180.60669	410.25719	936.6758	161.05974	365.93262	793.83949	253.19065	436.24897	792.0504	238.88344	424.24469	737.80907	287.01593	31.59324	1322.06879	270.59742	-29.10722	1116.08177	208.35634	-45.73848	994.13704	256.19682	-43.54267	899.48082	269.85001	43.86734	785.62729	344.25339	-28.65223	770.15953	356.90987	-5.70433	736.92146	386.5543	324.3185	929.77829	281.07203	60.09387	925.13573	302.8849	260.09106	987.3349	114.55535	93.39912	1002.56042	127.10871	337.27749	623.02921	213.67762	343.44341	494.13261	310.15192	306.203	297.14857	296.14695	334.77791	176.71236	180.58477	273.08399	142.13234	118.57063	335.26733	63.43532	278.00299	68.77526	638.42777	158.54129	100.03304	476.71001	269.07429	128.75093	305.21961	246.46042	132.27469	115.299	175.23649	180.50325	72.14666	100.80091	188.82872	52.5769	304.76782
219	7.277	277.71074	1460.12558	470.89703	108.84438	1426.51855	478.14907	286.35366	1537.2197	370.63278	71.71447	1489.70261	406.79062	261.38187	1300.12756	297.887	128.27035	1293.44147	311.19347	249.92893	1368.14255	189.76318	102.8631	1360.44617	212.2246	177.7743	1209.15001	111.50416	201.18784	1240.58952	345.80376	207.54225	1141.39946	387.79953	356.70647	1328.48953	240.26632	406.16394	1095.53925	178.57735	421.41518	1010.24948	194.76446	409.47216	935.81093	175.41685	365.68699	793.19687	267.99576	435.95276	791.27052	253.2048	424.16355	737.04651	301.4374	31.12135	1321.14471	282.15734	-29.05641	1114.96262	220.02291	-44.85462	992.77435	267.8805	-42.5859	898.25783	280.81324	44.85591	783.14987	352.54406	-27.1516	768.14445	366.60908	-3.85485	734.53041	395.78476	324.24686	929.59213	293.87077	60.04899	923.94516	314.76017	260.60232	986.64268	127.02429	93.81961	1001.53168	139.21299	337.36782	622.80605	229.90637	342.89951	495.10132	328.85254	305.52355	296.83302	332.12093	335.78899	164.94959	230.24469	274.59642	124.15129	171.6885	334.61823	62.86518	339.25529	69.84043	638.17616	167.99606	100.55769	475.26325	276.87532	129.58567	303.76459	251.53543	132.74523	115.04821	176.84332	181.13405	72.76907	101.39096	188.96881	52.4968	304.88186
220	7.31	277.11512	1459.29138	483.14217	108.30262	1425.55405	490.03906	285.94193	1536.36841	382.90318	71.26151	1488.65921	418.56529	261.22726	1299.14581	310.01276	127.98294	1292.44293	323.13206	250.06384	1367.13303	201.98565	102.85227	1359.36111	224.0748	178.09462	1208.07533	123.71229	200.97132	1239.65103	357.80365	207.19772	1140.49927	399.78676	356.72844	1327.56439	252.74235	405.89878	1094.22302	192.07378	421.02093	1008.96606	208.52524	409.06025	934.58832	189.22241	365.49232	791.91971	281.5539	435.62004	790.05188	266.84687	423.86906	735.64041	315.04257	30.86678	1320.08514	293.71149	-28.6717	1113.69057	231.23281	-43.59694	991.26144	278.74279	-41.27787	896.79802	290.6933	46.29219	781.30905	361.70113	-26.01751	765.7856	375.05314	-2.55874	731.59019	403.66093	324.55757	929.15375	306.55811	59.94986	922.67593	327.13814	261.17331	985.7695	139.41485	94.53673	1000.3656	151.39255	337.59834	622.1632	245.35738	342.20112	495.45044	346.0817	304.62748	297.55911	366.25755	336.06102	156.10685	278.66043	275.97363	109.02614	224.46405	333.83293	64.76995	397.47627	70.87532	637.81353	177.52491	101.25916	473.6689	284.60546	130.3581	302.28184	256.36257	133.2019	114.96136	178.26458	181.43284	73.56832	102.11535	189.1161	52.26628	304.66883
221	7.343	276.94521	1458.31863	495.38918	108.08661	1424.51263	502.08691	285.8091	1535.34805	395.09502	71.13144	1487.54654	430.49149	261.28277	1297.94128	322.28222	128.27037	1291.09665	335.01663	250.43547	1365.92148	214.28293	103.16079	1358.12546	236.0515	178.86124	1206.88309	135.91157	201.03216	1238.26294	369.90078	207.22719	1139.12292	411.90662	356.92238	1326.21719	265.31054	406.06949	1092.52823	205.27845	421.04801	1007.3774	221.81067	409.13258	933.05389	202.41198	365.87933	790.64865	294.99208	435.72678	788.42072	279.87541	424.19956	733.97141	328.08258	30.93789	1318.70514	305.45811	-27.78326	1112.03186	242.00098	-41.976	989.40063	289.08022	-39.77978	895.07179	299.88226	47.24565	778.44536	369.93073	-25.31501	763.01575	382.75352	-2.02829	728.18542	410.62115	325.23926	928.28644	319.52837	60.45854	921.42647	339.19514	262.04643	984.49638	151.97209	95.55387	999.17061	163.55436	338.07392	621.04328	260.13618	341.7144	495.23888	362.02145	303.35026	299.12737	398.35594	336.27708	149.90063	325.67703	276.92989	98.50369	274.7554	331.37466	68.47531	452.50404	71.61581	637.50381	187.19255	101.41412	472.37129	292.56369	130.7373	301.02304	261.33318	133.26052	115.11799	179.65712	181.562	74.65202	102.76504	188.86248	52.31903	304.84726
222	7.377	277.06066	1457.30804	507.78568	108.19862	1423.41293	514.29863	286.04168	1534.19022	407.37854	71.32118	1486.31409	442.55188	261.71141	1296.49628	334.76166	128.74202	1289.58435	347.1035	251.1644	1364.52744	226.84351	103.8625	1356.66748	248.13105	180.05348	1205.43755	148.32637	201.31508	1236.83182	382.2662	207.40919	1137.61292	424.26659	357.6503	1324.82666	277.83155	406.61644	1090.92644	217.76236	421.59775	1005.80116	234.32947	409.48639	931.41487	215.02813	366.95683	789.12941	308.40567	436.68312	786.87332	292.20003	425.47638	732.32857	340.66841	31.27043	1317.11105	317.12967	-26.4458	1110.24216	252.67321	-40.07786	987.4131	299.30471	-38.12609	893.29445	308.88542	47.88187	775.50255	378.01365	-24.82701	760.0222	389.98028	-1.73016	724.60342	417.45346	325.73917	926.89102	332.91126	60.85712	920.18974	351.14185	263.46935	983.03787	165.01829	97.03409	997.98203	175.74924	338.40748	619.32129	274.62109	341.43776	494.26517	377.26078	301.52153	301.32328	428.15388	335.39581	145.96359	369.93084	276.95177	90.93862	322.33166	326.97819	73.92098	503.70449	72.41139	637.20169	197.04441	101.79444	470.66429	300.47926	130.85965	299.70264	266.33743	133.35315	115.29796	180.99754	181.78923	75.875	103.46273	188.69335	52.30869	304.78542
